<svg width="30" height="30" viewBox="0 0 30 30" fill="none" xmlns="http://www.w3.org/2000/svg">
<path opacity="0.987" fill-rule="evenodd" clip-rule="evenodd" d="M13.5169 1.98939C14.8762 1.83752 15.6806 1.83752 17.1412 1.98939C19.7267 2.37207 22.1235 3.56718 23.985 5.40189C22.7271 6.5909 21.4857 7.79726 20.2612 9.02064C17.9162 7.03314 15.2987 6.57439 12.4087 7.64439C10.2888 8.61939 8.8125 10.1994 7.98 12.3844C6.61958 11.3716 5.27687 10.3352 3.9525 9.27564C3.86046 9.2272 3.75534 9.20946 3.6525 9.22502C5.75625 5.16877 9.04375 2.75627 13.515 1.98752" fill="#F44336"/>
<path opacity="0.997" fill-rule="evenodd" clip-rule="evenodd" d="M3.64875 9.22522C3.755 9.20897 3.85562 9.22584 3.95062 9.27584C5.275 10.3354 6.6177 11.3718 7.97812 12.3846C7.76405 13.236 7.6291 14.1053 7.575 14.9815C7.62125 15.829 7.75562 16.6608 7.97812 17.4771L3.75 20.8427C1.90875 16.9952 1.875 13.1227 3.64875 9.22522Z" fill="#FFC107"/>
<path opacity="0.999" fill-rule="evenodd" clip-rule="evenodd" d="M23.7844 24.9186C22.4679 23.7576 21.0896 22.6685 19.6556 21.6561C21.0931 20.6411 21.9656 19.2486 22.2731 17.4786H15.2288V12.5868C19.2913 12.553 23.3519 12.5874 27.4106 12.6899C28.1806 16.8711 27.2913 20.6411 24.7425 23.9999C24.4394 24.3221 24.1184 24.6287 23.7844 24.9186Z" fill="#448AFF"/>
<path opacity="0.993" fill-rule="evenodd" clip-rule="evenodd" d="M7.97813 17.479C9.51562 21.3003 12.3344 23.084 16.4344 22.8303C17.5853 22.697 18.6888 22.2949 19.6556 21.6565C21.0906 22.6715 22.4669 23.759 23.7844 24.919C21.6968 26.7949 19.0352 27.9079 16.2337 28.0765C15.5973 28.1274 14.9577 28.1274 14.3212 28.0765C9.54875 27.514 6.025 25.1028 3.75 20.8428L7.97813 17.479Z" fill="#43A047"/>
</svg>
